# xmcd
#
# Track frame offsets:
#	222
#	38575
#	66422
#
# Disc length: 1197 seconds
#
# Revision: 2
# Processed by: cddbd v1.4PL0 Copyright (c) Steve Scherf et al.
# Submitted via: dBpowerAMP V4.0
#
DISCID=2104ab03
DTITLE=Sheena Easton - Days Like This
DYEAR=1989
DGENRE=Pop
TTITLE0=Days Like This [Extended Version]
TTITLE1=Days Like This [Percussapella]
TTITLE2=Days Like This [Bonus Beats]
EXTD=
EXTT0=
EXTT1=
EXTT2=
PLAYORDER=
